<?xml version="1.0" encoding="UTF-8"?>
<svg xmlns="http://www.w3.org/2000/svg" version="1.1" viewBox="0 0 532.112 99.271">
  <defs>
    <style>
      .cls-1 {
        fill: #00001b;
      }

      .cls-2 {
        fill: #ed1b30;
      }
    </style>
  </defs>
  <!-- Generator: Adobe Illustrator 28.7.1, SVG Export Plug-In . SVG Version: 1.2.0 Build 142)  -->
  <g>
    <g id="Layer_1">
      <g>
        <g>
          <path class="cls-2" d="M445.825,1.266v17.085l-21.856-17.085h-14.35l.006,30.603h15.96v-15.78l20.24,15.78h15.966l.008-30.609c-5.132.003-10.451.005-15.974.005"/>
          <polygon class="cls-2" points="114.093 11.996 95.112 11.996 95.112 1.266 79.123 1.266 79.147 31.869 95.112 31.869 95.105 21.148 114.093 21.148 114.093 31.869 130.066 31.869 130.066 1.266 114.093 1.266 114.093 11.996"/>
          <path class="cls-2" d="M162.374.475c-15.359,0-27.978,6.376-28.002,16.162.024,10.025,12.579,16.032,28.002,16.032s27.986-6.007,27.971-16.032c0-9.786-12.611-16.162-27.971-16.162M162.374,24.336c-6.289,0-10.675-3.058-10.683-7.503,0-4.16,4.093-7.633,10.691-7.633s10.675,3.473,10.667,7.633c0,4.445-4.394,7.503-10.676,7.503"/>
          <path class="cls-2" d="M228.17,17.561c0,3.779-3.763,6.774-8.573,6.774s-8.566-2.996-8.566-6.774l.008-16.296h-15.855v16.651c0,8.927,10.533,14.752,24.413,14.752s24.428-5.825,24.403-14.752l.025-16.651h-15.855v16.296Z"/>
          <path class="cls-2" d="M376.826.475c-15.367,0-27.971,6.376-27.986,16.162.015,10.025,12.556,16.032,27.986,16.032s27.986-6.007,27.978-16.032c0-9.786-12.627-16.162-27.978-16.162M376.826,24.336c-6.289,0-10.683-3.058-10.683-7.503,0-4.16,4.086-7.633,10.683-7.633s10.691,3.473,10.691,7.633c0,4.445-4.409,7.503-10.691,7.503"/>
          <polygon class="cls-2" points="295.283 1.266 301.391 8.827 315.464 8.827 315.464 31.87 332.052 31.87 332.052 8.827 346.109 8.827 352.234 1.266 295.283 1.266"/>
          <path class="cls-2" d="M277.807,12.169c-1.973-.188-3.928-.33-5.812-.425l-.403-.02c-1.831-.09-4.109-.201-6.588-.596-.907-.145-1.446-.645-1.51-1.064-.061-.404.319-.853,1.017-1.205,1.021-.425,3.357-.914,6.647-.914,6.958,0,10.08.945,12.36,1.635.454.138.873.264,1.28.372l.542.145,8.672-5.622-2.28-.904c-.192-.076-4.827-1.885-14.404-3.192l-.034-.005c-2.265-.246-4.731-.372-7.33-.372-2.81,0-10.274,0-15.242,2.775-1.751.906-3.142,2.024-4.135,3.325-1.051,1.378-1.585,2.937-1.585,4.633,0,2.443,1.664,3.882,3.292,4.966,1.306.872,4.136,2.022,14.546,3.192,2.677.207,5.177.393,7.502.561,2.343.17,4.115.361,6.229.836,1.546.446,1.884.978,1.886,1.065.004.157-.428.763-1.782,1.222-1.576.529-5.138,1.064-8.843,1.065-9.684-.39-11.969-1.266-14.388-2.192l-.88-.335-9.689,6.197,2.055.981c6.433,3.069,12.084,3.611,14.496,3.843l.245.024c2.324.227,5.13.342,8.339.342,4.153,0,7.69-.291,10.513-.865,3.06-.623,6.475-1.375,8.266-2.414,1.829-1.063,3.157-2.304,3.947-3.689.788-1.382,1.188-2.819,1.188-4.267,0-1.928-.585-2.978-1.668-4.246-2.577-3.001-8.441-4.109-16.447-4.85"/>
        </g>
        <g>
          <polygon class="cls-1" points="264.786 98.007 232.062 98.007 218.43 86 203.494 98.007 176.699 98.007 205.626 74.732 175.645 48.307 208.36 48.307 222.734 60.978 238.483 48.307 265.284 48.307 235.534 72.241 264.786 98.007"/>
          <polygon class="cls-1" points="447.669 98.006 447.659 48.306 425.842 48.306 425.842 72.762 391.336 48.306 368.057 48.306 368.057 98.006 389.873 98.006 389.868 73.541 424.385 98.006 447.669 98.006"/>
          <path class="cls-1" d="M333.665,48.307h-36.373l-27.577,49.699h24.244l4.85-10.037h28.44l4.86,10.037h29.144l-27.588-49.699ZM303.911,77.401l9.115-18.832,9.116,18.832h-18.231Z"/>
          <polygon class="cls-1" points="0 48.307 9.927 60.593 32.796 60.593 32.796 98.039 59.751 98.039 59.751 60.593 82.596 60.593 92.549 48.307 0 48.307"/>
          <polygon class="cls-1" points="167.433 59.536 167.433 48.307 97.268 48.307 97.268 98.006 167.433 98.006 167.433 86.788 123.22 86.788 123.22 78.77 160.883 78.77 160.883 77.146 160.883 77.146 160.883 69.167 160.883 69.167 160.883 67.542 123.22 67.542 123.22 59.536 167.433 59.536"/>
          <path class="cls-1" d="M529.469,74.37c-4.23-4.966-13.075-6.729-25.052-7.848-3.194-.306-6.365-.538-9.424-.695l-.664-.033c-2.978-.146-6.683-.329-10.718-.979-1.68-.27-2.568-1.214-2.683-1.978-.119-.787.557-1.633,1.809-2.269,1.679-.707,5.521-1.524,10.911-1.524,13.343,0,22.915,2.722,23.01,2.75l.779.226,12.865-8.413-3.406-1.215c-.515-.183-12.721-4.502-22.621-5.279-3.155-.346-7.382-.52-12.567-.52-4.543,0-16.612,0-24.625,4.513-2.806,1.463-5.035,3.269-6.623,5.368-1.67,2.206-2.517,4.703-2.517,7.42,0,3.87,2.64,6.166,5.222,7.902,2.095,1.411,6.653,3.274,23.491,5.182,4.347.338,8.408.643,12.182.919,3.82.279,6.712.594,10.163,1.377,1.949.569,3.171,1.496,3.194,2.425.023.907-1.061,2.204-3.176,2.928-4.094,1.406-8.444,1.41-13.935,1.394h-1.055c-16.057-.652-23.791-3.957-23.864-3.989l-.871-.385-14.518,9.364,2.89,1.391c10.4,5.005,19.542,5.892,23.445,6.269l.4.039c3.77.372,8.317.56,13.515.56,12.994,0,22.431-1.739,28.883-5.335,2.928-1.714,5.051-3.713,6.309-5.939,1.257-2.222,1.893-4.528,1.893-6.852,0-3.089-.888-4.703-2.643-6.775"/>
        </g>
      </g>
    </g>
  </g>
</svg>