<svg xmlns="http://www.w3.org/2000/svg" height="137.53" width="387.27" viewBox="0 0 389.27 139.53">
 <g transform="matrix(1.3333 0 0 -1.3333 -334.37 476.76)">
  <path d="m310.3 356.78c-14.63 0-20.771-6.8868-20.771-15.382v-0.75073c0-8.496 6.141-15.383 20.771-15.383h0.71704c14.63 0 20.771 6.8871 20.771 15.383v0.75073c0 8.4955-6.141 15.382-20.771 15.382zm43.335 0c-10.681 0-19.34-1.7537-19.34-8.9392v-0.74488c0-7.185 8.6586-8.9392 19.34-8.9392h0.54712c5.632 0 10.197-0.53997 10.197-2.751v-0.22852c0-2.211-4.5648-2.751-10.197-2.751h-0.37793c-5.632 0-10.197 0.53998-10.197 2.751v0.51563h-9.6702v-0.802c0-7.738 8.8162-9.627 19.691-9.627h0.72949c10.875 0 19.691 1.889 19.691 9.627v0.802c0 7.7375-8.8162 9.627-19.691 9.627h-0.53394c-5.0495 0-9.1428 0.4045-9.1428 2.0625v0.17212c0 1.658 4.0933 2.0625 9.1428 2.0625h0.33838c5.0495 0 9.1428-0.4045 9.1428-2.0625v-0.4585h10.386v0.74488c0 7.1855-8.6586 8.9392-19.34 8.9392zm-99.204-1.4326v-28.652h28.651c2.3735 0 5.7305 1.9251 5.7305 4.2986v2.8645h-23.996v21.489zm55.952-5.7297h0.55152c3.938 0 7.0617-1.0692 8.7942-3.0102 0.719-0.805 1.6743-2.2191 1.6743-5.1951v-0.78076c0-2.9755-0.95531-4.3901-1.6743-5.1951-1.7325-1.941-4.8562-3.0103-8.7942-3.0103l-0.55078 7.4e-4c-3.9395 0-7.0624 1.0685-8.7949 3.0095-0.71899 0.805-1.6743 2.2196-1.6743 5.1951v0.78076c0 2.9755 0.95532 4.3901 1.6743 5.1951 1.7325 1.941 4.8557 3.0102 8.7942 3.0102zm50.415-28.652c-14.63 0-20.771-6.8868-20.771-15.382v-0.75073c0-8.496 6.141-15.383 20.771-15.383h0.63428c5.7305 0 10.559 1.75 13.691 4.935v-3.5024h7.1631v15.684h-21.13v-4.9402h10.258c-0.33899-0.9475-0.79798-1.5674-1.188-2.0039-1.7325-1.941-4.8557-3.0095-8.7942-3.0095h-0.55078c-3.939 0-7.0624 1.0685-8.7949 3.0095-0.719 0.805-1.6743 2.2196-1.6743 5.1951v0.78076c0 2.976 0.95532 4.3903 1.6743 5.1958 1.7325 1.9405 4.8562 3.0095 8.7942 3.0095h0.55152c3.5925 0 6.5032-0.89223 8.3027-2.5217h11.485c-2.3215 5.6745-8.5416 9.6841-19.705 9.6841zm160.81 0c-10.682 0-19.34-1.7542-19.34-8.9392v-0.74487c0-7.1855 8.6581-8.9392 19.34-8.9392h0.54638c5.632 0 10.198-0.53998 10.198-2.751v-0.22852c0-2.211-4.5655-2.751-10.198-2.751h-0.3772c-5.632 0-10.198 0.53997-10.198 2.751v0.51563h-9.6702v-0.802c0-7.7375 8.8164-9.627 19.692-9.627h0.72876c10.875 0 19.691 1.8894 19.691 9.627v0.802c0 7.7375-8.8162 9.627-19.691 9.627h-0.5332c-5.0495 0-9.1436 0.4045-9.1436 2.0625v0.17212c0 1.658 4.0941 2.0632 9.1436 2.0632h0.33765c5.0495 0 9.1428-0.40524 9.1428-2.0632v-0.45849h10.386v0.74487c0 7.185-8.6586 8.9392-19.34 8.9392zm-96.34-1.4319v-28.652h28.651c2.3735 0 5.7305 1.9238 5.7305 4.2979v2.8652h-23.996v21.489zm37.962 0v-28.652h35.814v7.1631h-25.427v3.5808h19.698v7.1631h-19.698v3.5816h25.427v7.1631zm-195-7.3e-4c-1.643 0-3.1428-0.93633-3.8628-2.4133l-12.797-26.238h11.555l2.0962 4.2979h17.823l2.0955-4.2979h11.555l-13.974 28.651zm29.899 0v-28.651h10.386v17.292l14.001-15.015c1.355-1.4525 3.2518-2.2778 5.2383-2.2778h9.4116v28.651h-10.386v-17.292l-16.126 17.292zm87.743 0v-28.651h35.814v7.1624h-25.428v3.5815h19.698v7.1631h-19.698v3.5808h25.428v7.1631zm-111.74-7.0854c0.28019 0 0.56086-0.1467 0.70386-0.43945l4.7139-9.6658h-10.835l4.7146 9.6658c0.14275 0.29275 0.4222 0.43945 0.70239 0.43945zm137.17-27.296c-10.682 0-19.34-1.7537-19.34-8.9392v-0.74414c0-7.185 8.6581-8.9399 19.34-8.9399h0.54639c5.6315 0 10.198-0.53924 10.198-2.7502v-0.22925c0-2.211-4.566-2.7502-10.198-2.7502h-0.3772c-5.632 0-10.198 0.53925-10.198 2.7502v0.51563h-9.6694v-0.80201c0-7.738 8.8162-9.627 19.691-9.627h0.72949c10.875 0 19.69 1.889 19.69 9.627v0.80201c0 7.738-8.8154 9.627-19.69 9.627h-0.53393c-5.049 0-9.1428 0.405-9.1428 2.0625v0.17285c0 1.6575 4.0938 2.0625 9.1428 2.0625h0.33838c5.049 0 9.1421-0.405 9.1421-2.0625v-0.4585h10.386v0.74414c0 7.1855-8.6586 8.9392-19.34 8.9392zm-156.86-1.4319v-28.652h10.386v7.9519c0 1.4325 1.6488 2.237 2.7774 1.355l9.969-7.7886c1.259-0.984 2.8114-1.5183 4.4099-1.5183h11.495l-10.656 8.3254c7.3145 0.32201 10.656 5.3916 10.656 10.113v0.0842c0 4.8785-3.5664 10.129-11.399 10.129zm56.413-7.3e-4c-1.643 0-3.1423-0.93684-3.8628-2.4133l-12.797-26.238h11.556l2.0962 4.2978h17.822l2.0962-4.2978h11.555l-13.973 28.651zm30.615 0v-28.652h10.386v18.117l7.6589-15.702c0.72-1.4775 2.2198-2.4148 3.8628-2.4148h6.1443l8.8367 18.117v-18.117h10.386v28.652h-12.922c-1.6435 0-3.1435-0.93684-3.8635-2.4133l-6.8518-14.049-8.0288 16.462zm-24.712-7.0855c0.28018 0 0.56086-0.14645 0.70386-0.43945l4.7139-9.6658h-10.835l4.7146 9.6658c0.14275 0.293 0.42294 0.43945 0.70313 0.43945zm-51.93-0.0769h14.028c3.074 0 4.2371-1.3283 4.2371-2.9663v-0.0842c0-1.638-1.1631-2.967-4.2371-2.967h-14.028z" fill="#003594"/>
 </g>
</svg>
