<svg xmlns="http://www.w3.org/2000/svg" width="250" height="248" viewBox="0 0 250 248">
 <g transform="matrix(.539 0 0 .539 -9.75 -10.4)">
  <path d="m479 90.5c0-1-0.1-2-0.5-2.9-10-28.2-37.4-24.7-53.7-22.6-3.9 0.5-9.5 1.2-11.9 0.9-5.4-6-11.3-11.5-17.4-16.4 0.3-2.5-0.6-5.1-2.6-7-1.8-1.6-4.1-2.4-6.5-2.2-1.1 0.1-4.3 0.2-7.3 0.2-0.6-1.4-1.5-2.6-2.8-3.5-2.6-2-5.6-2.2-7.6-2.3-0.9-1.4-2.3-2.6-4-3.3-14.9-6-31-9-47.9-9-21.7 0.1-44.9 5.4-68.9 15.6-12.4-1.8-23-5.1-33.2-8.2-13.2-4.1-25.7-7.9-40.4-8.1-11.7-0.1-23.7 2.2-36.5 7.2-2.1 0.8-3.8 2.4-4.7 4.4-2.8-0.6-5.1-1.1-6-1.4-2.3-0.8-4.8-0.5-6.9 0.7-1.4 0.9-2.5 2.1-3.2 3.6-1.2 0.2-2.3 0.5-3.2 1-2 1-3.4 2.8-4.1 4.9 0 0.1-0.1 0.2-0.1 0.3-0.2 0.6-0.3 1.2-0.3 1.8v0.2 0.1-0.1c-3.7 0.9-6.5 2.5-8.8 4.1-0.5-0.1-1.1-0.3-1.6-0.4-0.4-0.1-0.7-0.2-1-0.2l-0.3-0.1c-0.7-0.1-1.2-0.3-1.9-0.4-0.4-0.1-0.8-0.1-1.1-0.2h-0.3c-0.6-0.1-1.2-0.2-1.8-0.2-0.4 0-0.9-0.1-1.2-0.1h-0.3c-0.6 0-1.2-0.1-1.8-0.1h-1.4-0.2-1.9-1.6c-0.7 0-1.3 0.1-1.9 0.1-0.5 0-1.1 0.1-1.7 0.1-0.6 0.1-1.2 0.1-1.9 0.2-0.6 0.1-1.2 0.1-1.7 0.2s-1.1 0.2-1.9 0.3c-0.7 0.1-1.2 0.2-1.7 0.3-0.7 0.1-1.3 0.3-1.9 0.4-0.5 0.1-1.1 0.3-1.7 0.4-0.7 0.2-1.3 0.4-1.9 0.6 0 0-0.3 0.1-0.3 0.1-0.5 0.1-1 0.3-1.5 0.5-0.6 0.2-1.2 0.4-1.7 0.6l-0.2 0.1-0.3 0.1c-0.4 0.2-0.9 0.3-1.4 0.5-0.6 0.2-1.2 0.5-1.6 0.7l-0.3 0.1-0.4 0.2c-0.4 0.2-0.8 0.4-1.3 0.6-0.6 0.3-1.1 0.6-1.6 0.8l-0.8 0.4c-0.3 0.2-0.7 0.4-1.2 0.6l-0.6 0.3c-0.2 0-0.4-0.1-0.6-0.1-1.5 0-3 0.4-4.3 1.2-1 0.6-1.9 1.2-3 2-0.3 0.2-0.7 0.5-1.1 0.7-0.7 0.5-1.4 1.1-2.1 1.6-0.1 0.1-0.3 0.3-0.5 0.4-0.9 0.3-1.9 0.7-2.8 1.2-0.5 0.2-0.7 0.4-0.9 0.5-0.1 0.1-0.2 0.1-0.4 0.2l-0.8 0.4s-0.2 0.1-0.3 0.2c-0.3 0.2-0.5 0.3-0.6 0.4-0.1 0-0.1 0.1-0.1 0.1-0.1 0.1-0.2 0.1-0.4 0.2-0.3 0.2-0.5 0.3-0.7 0.5-0.1 0.1-0.4 0.3-0.4 0.3-0.2 0.2-0.4 0.3-0.6 0.4-0.2 0.2-0.4 0.3-0.5 0.4-0.2 0.2-0.4 0.3-0.6 0.5s-0.3 0.2-0.4 0.4c-0.2 0.2-0.3 0.3-0.5 0.4l-0.5 0.5c-0.2 0.2-0.4 0.3-0.5 0.5-0.1 0.1-0.3 0.3-0.5 0.4l-0.4 0.7-1 1-0.4 0.5-0.5 0.5c-0.1 0.1-0.2 0.3-0.4 0.5 0 0-0.3 0.4-0.3 0.4-0.3 0.3-0.4 0.5-0.5 0.7-0.1 0.1-0.3 0.3-0.4 0.5-0.2 0.2-0.3 0.4-0.4 0.6l-0.4 0.7c-0.1 0.2-0.3 0.4-0.4 0.6s-0.3 0.4-0.4 0.6l-0.4 0.6s-0.3 0.5-0.3 0.5c-0.2 0.3-0.3 0.5-0.4 0.7s-0.2 0.3-0.3 0.6c-0.1 0.2-0.2 0.4-0.4 0.7l-0.3 0.5c-0.1 0.3-0.2 0.5-0.4 0.7l-0.3 0.6c-0.1 0.3-0.2 0.5-0.3 0.8 0 0.1-0.2 0.5-0.2 0.5-0.1 0.3-0.2 0.6-0.3 0.8l-0.2 0.5-0.3 0.9c-0.1 0.2-0.1 0.4-0.2 0.5l-0.3 0.9c-0.1 0.2-0.1 0.3-0.1 0.5-0.1 0.3-0.2 0.7-0.3 1-0.1 0.2-0.1 0.3-0.1 0.5-0.1 0.4-0.2 0.7-0.2 1 0 0.2-0.1 0.3-0.1 0.5-0.1 0.4-0.1 0.8-0.2 1.1 0 0.1 0 0.2-0.1 0.4-0.1 0.5-0.1 0.9-0.2 1.3v0.2c-0.2 2.1-0.3 4.2-0.2 6.3v0.4c0 0.4 0.1 0.8 0.1 1.3v0.4c0 0.3 0.1 0.8 0.2 1.2 0 0.2 0 0.3 0.1 0.4 0.1 0.4 0.1 0.8 0.2 1.2 0 0.2 0.1 0.3 0.1 0.4l0.3 1.2c0 0.2 0.1 0.3 0.1 0.4l0.3 1.2c0.1 0.2 0.1 0.3 0.1 0.5 0.1 0.5 0.3 0.8 0.4 1.1 0.1 0.2 0.1 0.4 0.2 0.6 0.1 0.4 0.3 0.7 0.4 1.1 0.1 0.2 0.1 0.3 0.2 0.5 0.2 0.4 0.3 0.8 0.5 1.1 0.1 0.2 0.2 0.4 0.3 0.5 0.2 0.3 0.3 0.7 0.5 1 0.1 0.2 0.2 0.4 0.3 0.5 0.3 0.5 0.4 0.8 0.6 1 0.1 0.2 0.3 0.5 0.4 0.6l0.6 0.9c0.1 0.2 0.3 0.4 0.4 0.6l0.6 0.9c0.1 0.2 0.3 0.4 0.5 0.6 0.2 0.3 0.5 0.6 0.7 0.9 0.2 0.2 0.3 0.4 0.5 0.6 0.2 0.3 0.5 0.6 0.7 0.9l0.5 0.6c0.2 0.3 0.5 0.5 0.8 0.8l2 2c0.3 0.2 0.5 0.5 0.9 0.8l0.6 0.6c0.3 0.3 0.6 0.6 0.9 0.8l0.7 0.6c0.3 0.3 0.6 0.5 1 0.8 0.2 0.2 0.5 0.4 0.7 0.5 0.3 0.3 0.7 0.5 1 0.7 0.1 0.1 0.8 0.5 0.8 0.5 0.4 0.3 0.7 0.5 1.1 0.7l0.2 0.1 0.6 0.4c0.4 0.2 0.7 0.4 1 0.6 0.1 0.1 0.3 0.2 0.3 0.2l0.6 0.4c0.4 0.2 0.8 0.5 1.2 0.7l0.2 0.1c0.2 0.1 0.4 0.2 0.6 0.4 0.4 0.2 0.7 0.4 1 0.6l0.2 0.1 0.3 0.1 0.6 0.3c0.5 0.2 0.9 0.5 1.4 0.7 0 0 0.3 0.1 0.3 0.1l0.6 0.3c0.5 0.2 1 0.5 1.5 0.7 0.1 0 0.3 0.1 0.3 0.1 0.1 0 0.2 0.1 0.2 0.1-0.1 8.1-2.2 11.8-5.4 17.5-2.8 4.9-6.2 11.1-8.7 21-0.5 2.2-0.2 4.5 1 6.3 1.2 1.9 3 3.3 5.2 3.8 0.3 0.1 0.4 0.1 0.5 0.2 1.8 2 0.5 12.9-0.2 18.8-1.6 13.3-3.5 29.6 5 41.2l0.7 7.7c-0.1 0.2-0.2 0.3-0.2 0.3l-0.1 0.2c-0.2 0.4-0.4 0.8-0.5 1.1-0.1 0.1-0.1 0.2-0.1 0.2-0.2 0.5-0.4 0.8-0.5 1.1l-0.1 0.3c-0.1 0.3-0.3 0.7-0.4 1l-0.1 0.2v0.1c-0.2 0.4-0.3 0.7-0.4 1l-0.1 0.2v0.1c-0.1 0.4-0.3 0.8-0.4 1.1 0 0-0.1 0.2-0.1 0.3v0.1c-0.1 0.3-0.2 0.7-0.3 1.1 0 0.1-0.1 0.2-0.1 0.3-0.1 0.4-0.2 0.7-0.3 1 0 0.2-0.1 0.3-0.1 0.4-0.1 0.4-0.1 0.8-0.2 1.1 0 0.1 0 0.3-0.1 0.4 0 0.3-0.1 0.7-0.1 1v0.4c0 0.3-0.1 0.7-0.1 1.1v0.4 1 0.4c0 0.3 0 0.7 0.1 1.1 0 0.2 0 0.3 0.1 0.4 0 0.3 0.1 0.7 0.2 1.1 0 0.2 0.1 0.3 0.1 0.4 0.1 0.3 0.1 0.7 0.2 1s0.1 0.4 0.1 0.5c0.1 0.3 0.2 0.6 0.3 1 0.1 0.3 0.1 0.4 0.2 0.5 0.1 0.3 0.2 0.6 0.4 1 0.1 0.2 0.2 0.4 0.2 0.5 0.1 0.2 0.2 0.6 0.4 0.9 0.1 0.2 0.2 0.4 0.2 0.5 0.1 0.3 0.3 0.6 0.5 0.9 0.1 0.2 0.2 0.3 0.2 0.4s0.1 0.1 0.1 0.1c0.1 0.2 0.3 0.5 0.5 0.8 0.1 0.2 0.2 0.3 0.3 0.4l0.1 0.1c0.1 0.2 0.3 0.4 0.5 0.7 0.1 0.2 0.3 0.3 0.3 0.4l0.2 0.2c0.1 0.2 0.3 0.4 0.5 0.6 0.1 0.2 0.3 0.3 0.4 0.4l0.2 0.2c0.1 0.2 0.3 0.4 0.5 0.6s0.3 0.3 0.4 0.5l1.9 1.9c0.2 0.2 0.5 0.4 0.6 0.6l0.2 0.2c0.1 0.1 0.3 0.2 0.4 0.4 0.3 0.2 0.5 0.4 0.7 0.6l0.1 0.1c0.2 0.2 0.4 0.3 0.5 0.4 0.3 0.2 0.6 0.5 0.8 0.7l0.2 0.1 0.1 0.1 0.3 0.2c0.4 0.3 0.9 0.7 1.4 1l0.2 0.1c0.1 0.1 0.2 0.1 0.3 0.2 3.6 22.1 10.4 39.1 20.3 50.7 1.6 1.9 3.9 2.9 6.3 2.9 0.8 0 1.6-0.1 2.3-0.3 3.5-1 6.6-1.6 9.2-1.6 3.9-0.1 6.5 0.7 7.8 2.5 1.4 2 1.3 5.1 0.7 6.5-1.3 3.2-0.5 6.9 2.1 9.3 28.1 25.4 44.4 29.2 55.2 31.6 8.3 1.9 11.4 2.6 17.3 12.7 6.1 11.2 10 21.1 13.3 29.9 8.5 22.1 15.3 39.5 49.3 42.6 6.2 0.6 13.3 0.7 21.6 0.4 1.1 0 2.4-0.1 3.7-0.2 1.1-0.1 2.1-0.2 2.9-0.4 0.2 0 0.4 0 0.7-0.1 2.1-0.3 4.2-0.9 6.3-1.5 0.4-0.1 0.8-0.2 1.1-0.3h0.2c0.7-0.2 1.4-0.4 1.9-0.7 0.4-0.2 0.7-0.4 1-0.5l0.3-0.1c-0.2 0.1-0.3 0.1-0.5 0.2 0.8-0.4 1.7-0.7 2.5-1.1-0.2 0.1-0.4 0.2-0.7 0.3 0.3-0.1 0.6-0.3 0.9-0.5 2.2-1.1 4.3-2.5 6.3-4 0.2-0.1 0.3-0.2 0.5-0.4 1.8-1.4 3.6-3.1 5.2-4.8 0.2-0.2 0.5-0.5 0.8-0.9 0.5-0.5 0.9-1 1.3-1.5 0.3-0.4 0.6-0.8 0.8-1.1l0.1-0.2 1.5-2.1c0.5-0.7 0.9-1.3 1.2-1.9 0.3-0.5 0.6-0.9 0.8-1.3 0.4-0.6 0.7-1.3 1.1-2l0.1-0.3c0.1-0.2 0.3-0.5 0.4-0.9 0.5-1 1-2.1 1.5-3.2 0.1-0.3 0.2-0.5 0.3-0.7l0.1-0.3c0.4-0.9 0.7-1.8 1.1-2.8l0.1-0.2 0.3-0.9c0.2-0.7 0.4-1.3 0.6-1.9 0.4-0.6 0.7-1.2 1-1.9l0.9-2.8c3.6-10.7 4.6-17.5 5-23.6 10.7-5.4 19.8-18.1 29.2-31.5 7-9.9 15.8-22.2 21.6-24.3 0.3-0.1 0.5-0.2 0.8-0.3 4.4-2.1 10-3.3 15.8-4.6 5.4-1.2 11.6-2.5 17.8-4.8-0.3 0.1-0.6 0.2-0.9 0.3 1.3-0.3 2.4-0.8 3.5-1.4 0.1 0 0.1 0.1 0.2 0.1 0.4 0.2 0.8 0.3 1.2 0.4h0.2c0.3 0.1 0.7 0.1 1 0.2h0.4 0.5 0.3c0.3 0 0.7 0 1-0.1 0.2 0 0.3 0 0.5-0.1 0.4-0.1 0.9-0.2 1.3-0.4 0.1 0 0.1 0 0.2-0.1 0.4-0.2 0.9-0.4 1.3-0.7l0.1-0.1s0.1 0 0.1-0.1c5.4-3.5 8.4-8.2 10.2-12.5 0.6-0.3 1.1-0.6 1.6-1 0.6-0.4 1.2-0.9 1.8-1.5l0.4-0.4c0.7-0.8 1.3-1.6 1.9-2.4 0.1-0.1 0.2-0.4 0.3-0.5 0 0 0 0.1-0.1 0.1 0.2-0.4 0.5-0.9 0.7-1.3 1.3-0.7 2.4-1.6 3.3-2.9s1.7-2.6 2.6-4.1l0.2-0.2c2.6-2.6 7.5-7.5 8.9-16.9 0.1-0.4 0.1-0.8 0.2-1.2 0.1-0.9 0.2-2 0.3-3.2 1.8-4.7 3.9-8.5 5.9-12.1 2.3-4.1 4.4-8 6-12.6 0.2-0.8 0.5-1.4 0.6-2.1 0-0.1 0.1-0.3 0.1-0.4 0.2-0.7 0.3-1.3 0.4-1.8 0-0.2 0.1-0.4 0.1-0.5 0.1-0.7 0.2-1.2 0.3-1.7 0-0.3 0.1-0.5 0.1-0.7 0.1-0.7 0.2-1.2 0.2-1.7 0-0.3 0.1-0.5 0.1-0.8 0.1-0.7 0.1-1.2 0.1-1.7v-1-1.6-1.1c0-0.5 0-1.1-0.1-1.6 0-0.4 0-0.8-0.1-1.2 0-0.5-0.1-1-0.1-1.6 0-0.4-0.1-0.8-0.1-1.3-0.1-0.6-0.2-1.2-0.2-1.7-0.1-0.4-0.1-0.9-0.2-1.3-0.1-0.6-0.2-1.2-0.3-1.7s-0.2-0.9-0.3-1.4c-0.1-0.6-0.3-1.3-0.4-1.8v-0.2l-0.3-1.2c-0.2-0.7-0.3-1.3-0.5-1.9l-0.1-0.4-0.3-1.1c-0.2-0.7-0.4-1.3-0.5-1.9 0-0.2-0.2-0.6-0.2-0.6l-0.3-1.1s-0.1-0.2-0.1-0.4c1.8-1.5 2.8-3.8 2.8-6.1 0.7-41.6-3.2-68.9-12.9-88 0.3-0.1 0.6-0.2 0.9-0.3l0.8-0.4c0.3-0.1 0.6-0.2 1-0.4 1-0.4 1.9-0.9 2.8-1.3 0 0 0.1-0.1 0.2-0.1 0.2-0.1 0.5-0.2 0.8-0.4 1-0.5 2-1 2.8-1.5l0.1-0.1 0.6-0.3c1.1-0.6 2.1-1.2 2.8-1.7-0.1 0 0 0 0 0 0.1-0.1 0.3-0.2 0.5-0.3 0.8-0.6 1.7-1.2 2.7-1.9 0 0 0.1-0.1 0.3-0.2 0.9-0.7 1.7-1.4 2.6-2.2l-0.2 0.2c0.1-0.1 0.3-0.2 0.4-0.4 0.8-0.7 1.6-1.5 2.4-2.4l-0.2 0.2 0.3-0.3c0.8-0.8 1.5-1.7 2.2-2.6 0-0.1 0.1-0.1 0.1-0.2 3.7-4.8 5.8-10.3 6.3-16.3 0.6-0.9 1.2-1.9 1.7-2.8 0-0.1 0.1-0.1 0.1-0.2 3.1-3.7 3.8-9.3 2.2-14.2z" fill="#fff"/>
  <path fill="#E64100" d="m173 40.7 11.6 10.7c-10.9 1-19 1.9-30.4 2.2-3.2 0.2-11.8-0.3-13.3 0-1.9 0.3 4.1 2.7 2.2 3.1-1.5 0.3-14.3-3.2-20.9-1 6.9 1.5 11.2 3.3 10.1 3.6-6.4 1.8-9.3 3.3-14.7 6.3l2.4 14.6c-15.8-9.2-38-13.9-66.5-14.1l0.0996-0.0996c-1.6 0.6-3.1 1.3-4.4 2-24.1 34.4-1.3 42.9 13.8 48.7-11.9-12.1-12.2-24.5 3-31.7 13.5-3.6 24.8 2.3 34.1 18-26.2 22.7-26.3 51.5-22.4 98.2l-21 39.8 1.6 12.4c0.9 6.1 5 8.2 12.2 6.3-3.1 6.6-1.1 15.8 0 21.1 1.7-3.8 4.2-8.2 9.8-11.4 2.2 26.6 9.5 52.2 28.9 48.4 3.4 4.4 8.6 9.8 14.6 15.3 1.8 1.6 4.8 13.8 6.7 15.4 1.7 1.5 2.3-7.4 4.1-6 2 1.7 3.2 16.4 5.3 18 0.3 0.6 2.3-12.9 6.9-8.7 19.8 13.9 38.6 20.8 35.9-0.301-107-45.2-79.7-148-79.7-148l-10.1 9.7c-1.7-16.5-2.2-31.4-1.6-44.5 0.1-2.8 4.6-10.6 4.9-13.2 3.2-6.4 5-12.1-5.7-2.1-0.3-11.4 10.9-16.1 11.8-19.6 0.6-2.3-5.3-1.8-4.6-3.9 12.1-6.8 9.1-8.8 10.3-11.4 1.3-2.7-4.2-2.4-2.7-4.6 5.7-8.4 13-12.9 21.3-13.3-9.3 13.5-20.1 40.1-16.4 64.5 37.1-9.1 13.8-44.6 42.1-63.3 13.2-6.6 21-8 48.5 6-7.7 1.2-19.9 3-19.8 12.2 5 12.7 35.8-3.5 45.1 31.2-10.1-5.4-14.4-7-22-2.9 18.6 6.1 30 11.7 21.8 32.6-8.3-15.8-15.8-18.7-24.6-12.4-1.3-4.6-3.1-7.9-5.3-10.5-1.3 17.7-11.8 24.1-28.8 12.5 1.5 2.8 3.9 5.8 7 9.4-5.8-2-9.8-4.5-11.8-7.6-2 3.6-0.3 7.3 5 10.9-9.1 17 4.3 18.2 13.8 11.5 11.9-15 19.4-19.3 27.1-18.3-8.9 19.8-33.8 37.2-19.2 40.4-8.5 10-8.6 14.4-0.199 13.2-5.3 8.3-5.7 13.7 0.199 12.1-5.1 30.4 1.3 40.1 11.9 47-9.1 13.4-5.2 31.4 7.4 52.8 0.1-0.6 0.3-1.3 0.4-1.8-1.4-26.8 0.499-28.4 6.8-44.5 4.6 2.7 6.8 14.1 12.9 16.4 2.4-8.3 4.8-13.5 7.1-15.5l7.1 6.3 5.8-2.5 4 1.8 3.9-2.6 6.8 2.3 6.6-4.9c1.7-1.1 3.1 3.7 4.3 14.4l8.6-11.1c4 6.9 5.1 23 3.2 48.2 8.8-11 14.7-21.6 16.6-32.1 2.8-9.6 0.699-18.2-6.3-25.5l13.6 7.3v-0.0996c7.6 1.9 13-0.7 14.8-8.1 21.8 31.3-12.7 67.7-20.8 91.2l4.6 8.2c22.6-23.6 35.5-42.3 38.7-56l8.2 8.1c3.1-3.9 5.2-10.5 6.3-19.9 37.7 15.6 41.2-24 64.1-26.1l7.2 11.7c0 0.1-0.0996 0.101-0.0996 0.201 1.4-1.5 2.6-3.7 3.1-7.5v-0.102l-2.8-10.3c5.8-27.7 5.4-48.3-1.2-61.6 12-25.6 11-55.2-3.2-88.9-27.3-7.1-37.2-22.1-29.6-45 14.2 15.4 61.6 4.3 67.9 11.5 4.2-5 6.8-10.8 3.7-15.5-20.3 2.9-30.9-19.5-84.4-6.4-4.7-9.1-11.5-12.7-20.4-10.7 0-29.6-71.9-33.1-88.8-21.4 13.3 3.5 26.7 4.7 40.3 3.7-14.2 9.8-34.8 13.6-52.1 7.1-9.7 14.9 4.6 33.9 31.2 17.5 6.1-1.9 39.3-15.1 61.7 14.1-47.9-12.2-61.9 28.7-77.6 13.5-4.2-5.8 1.9-28.1-31.8 6.3 4.8-29.6 2.8-46.1-1.5-60.7l0.299-0.6c-25.5-7.9-50.4-11.8-74.6-11.6zm59.2 17.7c7.2 8.7 8.5 22.5 3.9 41.5-5.1 50.2 9.1 20.1 13.4 29.2 2.3 3.8-0.2 13.3-3.6 24.9l-15-5.9c-2.2-12.9-9.4-23.8-21.6-32.8 16.9-15.5 24.6-34.4 22.9-56.9zm132 50.1c69.7 20.1 36.6 118 22.6 143 12.6-1.8 21.4-12.7 26.2-32.5l14.6 21.9c-6.9 4-10.9 15.3-11.9 34.1-2.2 7.6-14.5 14.8-21.8 18.7-2.1 1.1 10.8-11.2 2.1-18.3-5.4 5.4-17.8 26.6-18.3 26.2-4.3 1.7 2.8-12.3-1.7-10.4-2.6 1.1-13.6 17.4-16.2 18.7-2.5 1.3 2-10.2-0.4-8.7-4.4 2.7-10 15.4-13.8 19.3 1.3-16.6-2.1-29.1-10.2-37.5-6.9-2.6-11.3-2-23.1 0.6 2.1-14.1 1.5-28.1-1.7-42.1 20.9 44 68.8-28.4 63.2-42.1-12.8 16.8-31 14.3-54.7-7.6 43.2-6.2 45.3-11.9 26.7-29.1 0.3 3.8-7.3 9.3-22.1 16.8 7.7-7.1 11.5-13.1 11.5-17.8-1.3-10.6-16-19.5-28.6-7.8 1.8-1.6 4.3-2.4 7.3-2.1l2.8 5.9 7.5-3.9c11.4 6.7 2.8 26.5-14.6 17.4-7.1-5-7.4-12.5-3.6-16.6-3.1 3.1-6.1 7.5-8.6 13.4-3.3-5.8-16.5-2.2-16.1 31.9-8.7-24.9-14.5-51.5-30.5-35l18.2-47.7c5.1 8.5 5.8 12.2 24.5-1.2 9.9 17.2 28.1 2.6 33.2 24.9-19-2.8-28.4 3.6-29.6 17.4 7.8-13.3 17-15.5 29.1-13.1 4.4-8.2 11.5-10.5 25.2 7.4 16.5 5.3 17.7-16.3-4.3-26.7 0-0.1 0.102-0.201 0.102-0.301-9.8-4.9-16.3-5-23.6-4.1 7.4-14.6 18.7-16.3 33.9-5 6.6-1.6 12.8-1.1 6.7-8.1zm-184 41.8 2.7 7.4 5.1-5.4c-1-0.6-2-1.1-3-1.6-1.7-0.2-3.3-0.398-4.8-0.398zm-55.4 37c-5.8 11.5-7.5 21.2-6.1 29.6 0.2 1.3-1.3 11.3-0.9 12.6 0.5 1.7 2.8-5.3 3.6-3.7 0.5 1.2-3.6 12.3 1.2 16.3 1 1.6 2.7-9.6 3.9-8s4.1 12.2 5.6 13.7c1.4 1.4 1.4-6.3 3-5 1.3 1.1 1.7 19.9 9.3 24.9 1.2 0.9-1.7-17.8 3.6-16.2 14.3 13.1 4.7 49.7 29.5 54.5-9.2-28.6-14.1-60.7-9.8-73.6-24.4-7.6-38.7-22.7-42.9-45.1zm90.2 14.9c-1.4 7.2-4.3 13.7 6.6 15.1 11.8-3.8 17.6 1.1 17.4 14.8-6.1-2.5-9.6-0.499-10.2 5.8l-13.2-7.7c-4.6 6.4-2.6 11.6 6.1 15.7 4.7 2.2 15.1-4.7 20.3 1.1l-3.9 9.3c6.9 0.5 24.5-7.4 21.3 9.2l9-18.7c14.2-5.2 20.6-13.4 19.2-24.5 14 16.4-3.8 26.1-6.9 35.1l8.2-4.3c8.3 8.4 5 18.7-10.1 31.1l7.5 5.9s-53.2-3.8-78.7 0l6.8-5.2-11-3.1c-17.8-31.6 1.6-69 11.6-79.6zm53.4 12c1.9 0.309 3.82 1.78 5.85 4.44 3.3 5.8 3.2 11.2-0.301 16.3-3.3 3.4-18.7-0.201-15.1-12.8 3.31-5.75 6.39-8.45 9.55-7.94zm-195 4.74c10.1 16.5 11 23.4-3.5 40.5 0.7-13.6-0.6-34.2 3.5-40.5zm156 103c-0.848-0.0586-1.72 0.105-2.62 0.555-14.2 25.9-6.4 59.2 6.8 89.5 7 1.3 12.4 0.599 16.2-2.2l6.8 4 6.6-1.5 9.8 0.801-12.1 6.8-7.6-3.5c-6.4 5.4-7.7 5.2-15.6 0l-7.6 5.3-1.5-6.6c-13.4-5.8-10.1-12.9-16.4-29.1l-0.299-1.5c-6.4 27.1-1.2 46.8 18 42l0.5 0.299c18.3 12.4 35.5 3.1 42.3-0.199 22 5 25.3-26.1 19.7-53.4-4.9 16.5-11.1 35.8-17.7 38.8 5.3-32.8 4.7-63.4-2.1-84.6-10.8-7.6-17.4 9-28.5 5.5-4.02 0.7-8.74-10.5-14.7-11zm-4.92 125c0.3 10.3 7.8 20.1 37.3 17.3 18.1-2.1 26.2-7.2 24.3-15.5-23.6 10.5-53.8 8.9-61.6-1.8z"/>
  <path fill="#0B162A" d="m171 30.3c-8.96 0.305-18.7 2.21-30 6.58-1.9 0.7 8.6 6.3 6.6 7.2s-23-3.9-23-4.1c0 0 11.7 6.3 10.6 6.9-1.3 0.7-16-2.9-17.4-2.2-1.4 0.8 6.6 5.9 5.1 6.7-1.3 0.7-6.5-0.0012-7.8 0.799-6.1-0.2-9.1 2.8-13.3 5.5-12.6-4.8-32.5-3.8-48.4 8.2l-0.0996 0.0996c28.6 0.2 50.8 5 66.6 14.2l-2.4-14.6c5.4-3 8.3-4.5 14.7-6.3 1.1-0.3-3.2-2.1-10.1-3.6 6.6-2.2 19.4 1.3 20.9 1 1.8-0.4-4.1-2.7-2.2-3.1 1.5-0.3 10.1 0.2 13.3 0 11.4-0.3 19.5-1.2 30.4-2.2l-11.6-10.7c24.2-0.2 49.1 3.6 74.6 11.6l-0.301 0.6c4.3 14.6 6.3 31.1 1.5 60.7 33.7-34.4 27.7-12.2 31.8-6.3 15.6 15.2 29.7-25.8 77.6-13.5-22.4-29.2-55.6-16-61.7-14.1-26.6 16.4-40.9-2.5-31.2-17.5 17.2 6.4 37.8 2.6 52.1-7.1-13.6 1.1-27-0.199-40.3-3.7 17-11.6 88.8-8.2 88.8 21.4 8.9-2 15.7 1.5 20.4 10.7 53.5-13.1 64.2 9.3 84.6 6.8-11.6-32.6-52.5-10.7-62.7-17.5-5.2-6-11.6-12.2-19.1-18-1.5-1.1-7.4-0.601-8.9-1.7-1.6-1.1 6.6-3.2 7.2-4.6 0.1 0.1-14.7 0.599-16.3-0.301-2.4-0.6 1.6-4 0.4-4.6-2.2-1.7-11.5 1-13.6-1.1-4.1-2.3 5.8-2.6 3.9-3.3-27.4-11-64-13.3-111 6.9l-0.398 0.801c-32.8-4.05-52.4-17.5-79.3-16.6zm61.3 28.1c1.7 22.4-6 41.4-22.9 56.9 12.2 9 19.4 19.9 21.7 32.8l14.9 5.9c3.3-11.6 5.9-21.1 3.6-24.9-4.3-9.1-18.6 20.9-13.4-29.2 4.5-18.9 3.2-32.8-3.9-41.5zm-183 9.6c-18.1 2.8-40.5 42.8 10.5 62.3 1.6 23.9-8.6 24.1-14.1 46.1 19 4.5-4.8 46.7 11.1 64.7l21.1-39.8c-3.8-46.7-3.7-75.5 22.4-98.2-9.3-15.7-20.6-21.7-34.1-18.1-15.2 7.2-14.9 19.6-3.1 31.7-15-5.8-37.9-14.3-13.8-48.7zm350 26.4c-7.6 22.9 2.3 37.9 29.6 45 14.1 33.7 15.2 63.3 3.2 88.9 6.6 13.3 7 33.9 1.2 61.6l2.8 10.3c8.4-27.1 25-26.8 7.5-72.7l6.3 2.4c0.9-51.7-5.8-76.8-17-92.4 23.3-6.7 34.7-17.2 34.4-31.6-6.4-7.1-53.7 3.9-68-11.5zm-228 3.07c-7.04-0.575-12.3 1.42-18.9 4.72-28.3 18.7-5 54.2-42.1 63.3-3.8-24.4 7.1-51 16.4-64.5-8.3 0.3-15.5 4.9-21.3 13.3-1.5 2.2 4 1.8 2.7 4.6-1.2 2.6 1.8 4.6-10.3 11.4-0.7 2.1 5.2 1.6 4.6 3.9-0.9 3.5-12.1 8.2-11.8 19.6 10.7-10 8.9-4.3 5.7 2.1-0.2 2.6-4.7 10.4-4.9 13.2-0.6 13.1-0.1 28 1.6 44.5l10.1-9.7s-27.4 103 79.7 148c2.6 21.1-16.1 14.2-35.9 0.299-4.5-4.2-6.6 9.3-6.9 8.7-2.1-1.6-3.3-16.3-5.3-18-1.8-1.5-2.4 7.5-4.1 6-1.9-1.6-4.9-13.8-6.7-15.4-6-5.6-11.1-11-14.6-15.3-19.4 3.8-26.8-21.9-28.9-48.4-5.7 3.2-8.2 7.6-9.8 11.4-1.1-5.3-3.1-14.5 0-21.1-7.2 1.9-11.3-0.199-12.2-6.3-7.3 13.5-7.7 20.8 9.7 32.4 3.2 22.4 9.5 39.1 19 50.1 27.7-8.1 30.9 10.6 27.7 18.5 49.3 44.7 57.3 17.7 74.1 46.4 25.4 46.5 13.1 71.1 76.7 68.6 18.7-0.4 31.2-11.1 37.3-31.9 0.2-0.2 0.4-0.3 0.5-0.5 5.1-14.5 5.4-21.2 5.8-29.4 19.7-4.1 38.4-51.5 56-57.8 9.8-4.7 22.1-5.2 34.3-9.7 4.7-1.2 8.3-8 9.7-8.7 1.5-0.8 3.2-0.301-0.799 7.8 9.4-6 8.6-17.7 9.7-18.6 1.4-1.1 0.2 6.8 1.6 5.5 4.5-2.5 3.7-10.9 4.8-12.2 1.2-1.4 0.599 6.9 1.7 5.3 2.3-3.3 4.5-7.1 6.6-11.5 0-0.1 0.102-0.0992 0.102-0.199l-7.1-12.1c-22.9 2.1-26.4 41.7-64.1 26.1-1.1 9.4-3.2 16-6.3 19.9l-8.2-8.1c-3.2 13.7-16.1 32.3-38.7 56l-4.6-8.2c8.1-23.5 42.6-59.9 20.8-91.2-1.8 7.5-7.2 10-14.8 8.1v0.0996l-13.6-7.3c7 7.4 9.1 15.9 6.3 25.5-1.9 10.6-7.8 21.1-16.6 32.1 1.9-25.3 0.799-41.4-3.2-48.2l-8.6 11.1c-1.1-10.7-2.6-15.5-4.3-14.4l-6.6 4.9-6.8-2.3-3.9 2.6-4-1.8-5.8 2.5-7.1-6.3c-2.3 2-4.7 7.1-7.1 15.5-6.1-2.3-8.3-13.7-12.9-16.4-6.3 16.1-8.3 17.7-6.8 44.5-0.2 0.6-0.3 1.2-0.5 1.8-12.5-21.4-16.4-39.3-7.4-52.8-10.5-6.9-17-16.6-11.8-47-5.9 1.6-5.5-3.8-0.199-12.1-8.4 1.2-8.3-3.2 0.199-13.2-14.6-3.2 10.3-20.5 19.2-40.4-7.7-1.1-15.2 3.2-27.1 18.3-9.5 6.7-22.9 5.5-13.8-11.5-5.3-3.7-7-7.3-5-10.9 2 3.1 6 5.6 11.8 7.6-3.2-3.5-5.5-6.6-7-9.4 17 11.6 27.5 5.2 28.8-12.5 2.2 2.6 4 5.9 5.3 10.5 8.9-6.4 16.4-3.4 24.6 12.4 8.3-20.9-3.2-26.5-21.8-32.6 7.5-4.1 11.9-2.5 22 2.9-9.3-34.7-40.1-18.5-45.1-31.2-0.1-9.2 12.1-11 19.8-12.2-13.7-7-22.6-10.1-29.6-10.7zm193 11c6.1 7-0.101 6.5-6.7 8.1-15.2-11.2-26.5-9.6-33.9 5 7.3-0.9 13.9-0.8 23.6 4.1 0 0.1-0.102 0.201-0.102 0.301 22 10.5 20.8 32 4.3 26.7-13.6-17.9-20.8-15.6-25.2-7.4-12.1-2.5-21.2-0.2-29.1 13.1 1.2-13.8 10.7-20.1 29.6-17.4-5.1-22.3-23.3-7.7-33.2-24.9-18.6 13.4-19.3 9.7-24.5 1.2l-18.2 47.7c16.1-16.5 21.8 10.1 30.5 35-0.4-34 12.7-37.7 16.1-31.9 2.6-6 5.5-10.3 8.6-13.4-3.7 4-3.5 11.5 3.6 16.6 17.4 9.1 26.1-10.7 14.6-17.4l-7.5 3.9-2.8-5.9c-3-0.3-5.5 0.5-7.3 2.1 12.6-11.7 27.4-2.8 28.6 7.8 0.1 4.7-3.8 10.6-11.5 17.8 14.8-7.5 22.3-13 22.1-16.8 18.6 17.2 16.4 22.9-26.7 29.1 23.7 21.9 41.9 24.5 54.7 7.6 5.7 13.7-42.2 86-63.2 42.1 3.3 13.9 3.9 28 1.7 42.1 11.8-2.6 16.2-3.3 23.1-0.6 8.2 8.4 11.6 20.9 10.2 37.5 3.9-3.9 9.5-16.6 13.8-19.3 2.4-1.5-2.1 10 0.4 8.7 2.6-1.3 13.6-17.6 16.2-18.7 4.5-1.9-2.6 12.1 1.7 10.4 0.4 0.4 12.9-20.8 18.3-26.2 8.7 7.1-4.2 19.4-2.1 18.3 7.3-3.9 19.6-11.1 21.8-18.7 1-18.7 4.9-30.1 11.9-34.1l-14.6-21.9c-4.8 19.8-13.6 30.7-26.2 32.5 14.5-24.8 47.6-123-22.6-143zm-183 41.9c1.5 0 3.1 0.0988 4.8 0.299 1 0.5 2 1 3 1.6l-5.1 5.5zm-55.5 37c4.3 22.4 18.6 37.4 42.9 45.1-4.3 12.9 0.602 44.9 9.6 73.7-24.5-4.8-15-41.4-29.3-54.6-5.2-1.7-2.4 17-3.6 16.2-7.6-5-8-23.8-9.3-24.9-1.6-1.4-1.6 6.4-3 5-1.5-1.5-4.3-12.2-5.6-13.7-1.2-1.5-3 9.6-3.9 8-4.7-4-0.599-15.1-1.2-16.3-0.7-1.6-3.1 5.4-3.6 3.7-0.3-1.3 1.1-11.3 0.898-12.6-1.3-8.4 0.402-18.2 6.1-29.6zm90.2 14.7c-10 10.6-29.3 48-11.6 79.6l11 3.1-6.8 5.2c25.4-3.8 78.7 0 78.7 0l-7.6-6c15.1-12.3 18.5-22.6 10.2-31l-8.2 4.3c3.1-9 20.8-18.7 6.9-35.1 1.4 11.1-5.1 19.2-19.2 24.5l-9 18.7c3.2-16.5-14.4-8.6-21.3-9.2l3.9-9.3c-5.2-5.8-15.6 1.1-20.3-1.1-8.6-4.1-10.7-9.3-6.1-15.7l13.2 7.7c0.7-6.3 4.1-8.2 10.2-5.8 0.2-13.7-5.6-18.6-17.4-14.8-10.9-1.3-7.9-7.8-6.6-15.1zm53.6 12.1c-3.16-0.515-6.24 2.19-9.55 7.94-3.7 12.6 11.7 16.2 15.1 12.8 3.5-5.1 3.5-10.5 0.301-16.3-2.02-2.66-3.95-4.13-5.85-4.44zm-195 4.74c-4.2 6.4-2.8 26.9-3.5 40.5 14.6-17.1 13.6-24 3.5-40.5zm155 103c5.87 0.41 10.6 11.7 14.7 11 11.1 3.5 17.7-13.2 28.5-5.5 6.8 21.3 7.4 51.9 2.1 84.6 6.6-3 12.9-22.4 17.7-38.8 5.6 27.3 2.3 58.4-19.7 53.4-6.8 3.3-24 12.7-42.3 0.199l-0.5-0.299c-19.2 4.9-24.4-14.8-18-42l0.299 1.5c6.3 16.2 3 23.3 16.4 29.1l1.5 6.6 7.6-5.3c7.9 5.2 9.3 5.4 15.6 0l7.6 3.5 12.1-6.8-9.8-0.801-6.6 1.5-6.8-4c-3.8 2.8-9.2 3.5-16.2 2.2-13.2-30.3-21-63.6-6.8-89.5 0.888-0.45 1.75-0.613 2.59-0.555zm-4.89 125c7.8 10.6 38 12.3 61.6 1.8 1.9 8.3-6.2 13.5-24.4 15.5-29.4 2.8-36.9-7-37.2-17.3z"/>
 </g>
</svg>