<?xml version="1.0" encoding="UTF-8" standalone="no"?>
<svg xmlns:rdf="http://www.w3.org/1999/02/22-rdf-syntax-ns#" xmlns="http://www.w3.org/2000/svg" xml:space="preserve" height="51.1" viewBox="0 0 190.97913 51.061248" width="191" version="1.1" xmlns:cc="http://creativecommons.org/ns#" xmlns:dc="http://purl.org/dc/elements/1.1/"><g transform="matrix(1.25 0 0 -1.25 -286 520)"><g style="" transform="matrix(.25 0 0 .25 229 297)"><path d="m606 406-1.06-3.99-0.927-3.47c-0.163-0.622-1.12-3.41-3.83-5.45-2.62-1.97-6.24-2.07-6.94-2.07l-39.9-0.0239c-7.8 0-7.67-7.2-7.67-7.2l33.5-0.64c11.7-0.257 17.9-7.23 17.4-14.7-0.066-1.01-0.378-3.55-1.1-6.11-1.56-6.04-6.82-16.1-24.7-16.1l-51.6 0.004 1.8 6.97c0.154 0.602 0.65 4.13 3.29 6.11 2.49 1.87 5.78 2.02 6.74 2.02l40.6 0.0171c2.38 0 4.13 0.458 5.42 1.15 1.56 0.836 2.43 2.01 2.92 3.12 0.727 1.64 0.609 3.12 0.609 3.12l-35.7 0.736c-10.4 0.279-16.6 5.69-15.8 14.4 0.0955 1.03 0.273 3.12 1.16 6.47l0.007 0.0262 0.0102 0.0341c2.72 9.6 12 15.6 24.2 15.6h0.005l47.5-0.009 4.05-0.005zm-90.9-20.4c-0.155-1.67-0.369-3.97-1.1-6.72l-8.79-32.5h-16.6l9.34 34.3c0.492 1.89 0.662 2.71 0.737 3.22 0.004 0.0285 0.009 0.0592 0.0136 0.0853 0.0159 0.123 0.0273 0.23 0.0376 0.328 0.0716 0.771 0.025 1.44-0.099 2.04-0.0182 0.0785-0.0296 0.162-0.0489 0.238-0.816 3.25-4.31 4.01-7.4 4.01l-30.4-0.002-9.68-36.1c-0.373-1.12-1.56-4.16-3.97-5.97-3.01-2.26-8.04-2.23-8.04-2.23h-6.78l16 59.6h16.4l-1.88-7.13c4.25 5.46 8.68 6.8 10.9 7.13h19.9c14.1 0 22.5-8 21.4-20.4zm-96.4-32.1-0.0421-0.15-0.058-0.155c-0.545-1.48-1.6-3.56-3.57-5.04-2.62-1.96-6.24-2.07-6.94-2.07h-7.96l15.9 59.6h16.7l-14-52.2zm3.83 61.2h-4.07l1.08 4 1.23 4.59c0.17 0.609 1.11 3.79 3.81 5.81 2.38 1.78 5.5 2.03 6.73 2.05l0.033 0.007h8l-1.02-3.97-2.5-9.64-0.743-2.84h-12.5zm-28-28.7-0.0444-0.516c-0.119-1.38-0.275-3.27-1.23-6.94l-8.78-32.4h-16.6l9.36 34.5c0.41 1.64 0.603 2.51 0.736 3.47 0.002 0.0182 0.007 0.0353 0.009 0.0546 0.0534 0.402 0.1 0.822 0.147 1.32 0.0376 0.414 0.0194 0.788-0.0227 1.14-0.007 0.0649-0.009 0.135-0.0171 0.198-0.512 3.2-4.19 3.93-7.4 3.93l-31.2-0.0387-9.6-36s-1.09-4.15-4.11-6.41c-2.41-1.81-6.12-2.14-7.49-2.21h-7.58l20.9 78.5c0.473 1.32 1.65 3.97 3.84 5.61 2.38 1.78 6.02 2.14 7.43 2.21h7.35l-1.02-3.96-7.67-29.9c1.48 1.89 2.97 3.29 4.39 4.32 0.214 0.155 0.427 0.304 0.636 0.442 1.14 0.759 2.22 1.28 3.18 1.64 0.402 0.152 0.786 0.28 1.14 0.381 1.84 0.522 3.04 0.434 3.04 0.434l19.1 0.005c17.2 0 22.3-10.7 21.4-19.9zm-112-24s-19.1-0.008-26.7-0.008c-1.45 0-2.8 0.247-4 0.713-0.739 0.287-1.42 0.658-2.02 1.1-2.35 1.74-3.52 4.65-2.58 8.28l5.08 19 26.8 0.002c7.71 0 9.2-2.08 9.39-4.07 0.005-0.0592 0.005-0.118 0.008-0.178 0.0284-0.497-0.0125-0.982-0.0523-1.43-0.0216-0.216-0.0819-0.57-0.172-1.02-0.005-0.0239-0.0102-0.0512-0.0159-0.0762-1.01-5.02-5.71-22.3-5.71-22.3zm1.66 44.4-18.1-0.0421c-1.82-0.129-6.87-1.05-11.7-7.21l1.9 7.18-16.2-0.0375-23-85.3h7.23c1.17 0.0364 5.14 0.313 7.68 2.22 2.36 1.76 3.53 4.68 3.94 5.87l6.76 25.5c0.0967-2.54 1.37-7.21 8.46-8.11 0.631-0.0785 25.4-0.0182 25.4-0.0182l0.0102 0.0182h6.43s4.9-0.257 8.83 2.95c4.36 3.56 5.97 9.23 5.97 9.23l1.45 5.07s5.5 21.7 5.65 23.2c1.13 12.1-6.62 19.4-20.7 19.4zm-54 21.3-19.6-73.4-0.0136-0.0603-0.0216-0.0683c-0.334-1.07-1.36-3.75-3.72-5.52-1.95-1.47-4.4-1.91-6.12-2.02l-0.115-0.007h-8.66l1.08 4 19.5 73.2c0.163 0.613 1.11 3.78 3.8 5.81 2.54 1.9 5.9 2.05 6.88 2.05h8l-1.07-4zm-63.4-55.9c-1.86-6.9-6.08-9.84-14.1-9.84h-28.9l5.2 19.3c1.64 6.08 4.59 9.85 14.2 9.85l28.4-0.0387c-0.0603-0.243-4.68-18.6-4.86-19.3zm21.5 31.8c-1.67 2.46-5.02 2.88-6.49 2.94l-36.8 0.0159c-16.9 0-28.1-8.19-32.2-23.7l-6.28-24.5c-0.297-1.44-0.982-5.82 1.01-8.75 1.58-2.33 4.67-2.83 6.24-2.92l37.2-0.0182c17.2 0 28 7.94 32.1 23.6l4.87 19h-0.0114l0.572 2.2 0.876 3.42c0.303 1.51 0.93 5.8-1.02 8.69zm-105-3c-0.2-2-1.2-6-3.8-16-5.1-19-7.6-21-24.8-21h-35.6l12.7 47.1h35.4c11.5 0 15.1-1.68 16-4.94 0.0216-0.0785 0.0375-0.162 0.0557-0.242 0.152-0.66 0.2-2.29 0.199-2.35-0.0125-0.698-0.0648-1.44-0.139-2.23zm-12.5 26.2h-51.2l-0.758-2.82-20.7-77h53c28 0 36.8 7.12 44.6 36.3 3.05 11.1 3.88 15.8 4.24 19.6 1.02 11-3.21 24.2-29.2 24.2" fill="#008e97"/><path d="m108 443 8.89 34.4h-5.56c-3.55-0.181-4.75-2.23-5.1-3.09l-8.88-34.3h5.87c0.143 0 3.18 0.0296 4.78 3.05m161 0.0603 8.87 34.3h-5.53c-4.5-0.23-5.23-3.47-5.23-3.47l-0.754-2.93h-0.001l-8.02-31h5.41c3.68 0.126 4.9 2.24 5.26 3.11m-34.2 34.3-19.5-28.9-4.62 28.9h-10.4c-4.5-0.23-5.23-3.48-5.23-3.48l-8.83-34h9.86l7.23 27.9h0.24l4.68-27.9h9.74l19.1 27.9h0.3l-7.23-27.9h9.86l9.68 37.4h-14.8zm-62.4-37.4h-10.5l-2.22 9.09h-19.2l-4.11-5.4-0.146-0.191s-2.6-3.49-7.08-3.49h-2.22v-0.008h-3.88l26.9 34.3c0.753 0.841 3.02 3 6.45 3.14h6l10-37.4zm-14.2 15-3.23 13.3-10.1-13.3h13.4zm-84.3 22.5-19.5-28.9-4.63 28.9h-10.5c-3.73-0.19-4.87-2.45-5.15-3.22l-8.84-34.2h9.86l7.22 27.9h0.241l4.68-27.9h9.74l19.1 27.9h0.299l-7.22-27.9h9.86l9.68 37.4h-14.8zm505-112h-34c-5.2 0.14-9.58 1.23-12.3 3.8 3.32-4.39 9.44-7.02 14.8-7.04l28.6-0.348c1.56 0.836 2.43 2.01 2.92 3.12zm28.7 37.9-1.62-6.16c-0.991-2.58-3.65-9.35-14.2-9.6h-37c-5.72 0-5.44-4.05-5.44-4.05l4.82-0.0933s-0.864 1.18 3.07 1.18l33.5-0.254c14.2-0.172 17.8 10.2 18.3 12l1.09 4.08-2.62 2.92zm-10.2-29.4s2.53-3.86 0.0159-13.3c-1.33-4.95-6.87-17.9-27.2-17.9l-49.1 0.003 2.9-3.24 46.1-0.005c20.8 0 29.9 13.4 30.4 22.8 0.365 7.47-3.04 11.6-3.04 11.6zm-99.8 10.2c0.0716 0.771 0.025 1.44-0.099 2.04-1.44 0.768-3.28 1.01-5 1.01l-30.4-0.001-8.97-33.5c-2.1-7.02-7.06-10.7-15.9-10.7h-3.14l2.94-3.24h1.48c9.47 0 16.2 6.12 17.9 13.5l8.19 30.8 30.4 0.002c0.853 0 1.74-0.0603 2.59-0.215 0.004 0.0285 0.009 0.0592 0.0136 0.0853 0.0159 0.123 0.0273 0.23 0.0376 0.328zm18.3 9.38c2.38-6.33 0.126-15.4-0.604-18.1l-8.79-32.5h-16.1l2.91-3.24h15.7l8.79 32.5c2.75 9.77 0.245 17.7-1.85 21.4zm-81.8 9.02-13.4-49.7c-0.482-1.77-3.03-10.3-14-10.3h-4.88l2.86-3.25h2.51c8.71 0 14.8 6.17 16.4 11.9l13 48.4-2.56 2.84zm6.62 25.5-4.38-16.8h-16.2l2.93-3.24h15.7l4.48 17.3-2.55 2.83zm-63.7-42.8c0.0376 0.414 0.0194 0.788-0.0227 1.14-1.42 0.673-3.26 0.884-4.96 0.884l-31.2-0.0375-8.89-33.5c-2.45-8.64-8.75-11.2-15.6-11.2h-3.85l2.9-3.24c11.9-0.462 17.8 6.64 19.5 13l8.36 31.6 31.2 0.0375c0.783 0 1.59-0.0478 2.38-0.16 0.002 0.0182 0.007 0.0353 0.009 0.0546 0.0534 0.402 0.1 0.822 0.147 1.32zm-28.3 19.5 5.58 21.8-2.55 2.83-6.85-26.7c0.214 0.155 0.427 0.304 0.636 0.442 1.14 0.759 2.22 1.28 3.18 1.64zm45.4-8.81c2.79-5.29 2.27-10.1 1.93-13.7 0 0-0.462-3.55-1.41-7.21l-8.78-32.4h-16.1l2.92-3.24h15.7l8.78 32.4c2.86 9.75 1.12 18.5-2.97 24.2zm-106-10c0.0398 0.444 0.0807 0.928 0.0523 1.43-1.4 0.611-3.58 1.01-6.94 1.01l-26.8-0.002-5.08-19c-0.491-1.9-0.4-3.6 0.13-5.04 0.602-0.446 1.28-0.817 2.02-1.1-0.0512 0.902 0.0399 1.87 0.306 2.9l5.08 19 26.8 0.002c1.7 0 3.1-0.104 4.25-0.283 0.006 0.025 0.0114 0.0523 0.0159 0.0762 0.0899 0.448 0.15 0.802 0.172 1.02zm17.7 12c2.53-5.51 1.84-11.2 1.25-13.7l-5.38-21.8c-2.07-9.42-7.4-18.7-19.3-18.7 0 0-28.4-0.0797-29.1 0-4.49-0.0694-6.91 1.45-6.91 1.45s3.16-4.69 9.36-4.69h25c21.2-0.668 23.6 19.4 25.4 26.4l3.34 14.1c0.928 4.53 0.287 11.7-3.71 16.9zm-61.7-49.2-5.21-19.8c-2.1-7.47-8.01-10.7-14.9-10.7h-4.14l2.89-3.24h1.88c8.57 0 15.7 5.49 17.6 13.7l4.32 16.5c-1.6 1.74-2.38 3.51-2.38 3.51zm-10.6 80.6-20.3-75.9c-1.24-5.13-6.81-9.51-12.8-9.51l-5.78-0.008 2.78-3.21 2.96-0.0216c7.9 0 13.9 5.57 15.8 11.1l19.8 74.8-2.53 2.81zm-88.5-41c-11.6-0.0512-11.8-1.86-14.2-9.85l-4.33-16.1h3.34l4.49 16.4c1.35 4.85 1.52 6.16 8.56 6.16l26.8 0.0148 0.817 3.25-25.5 0.0341zm49.1 8.43c-0.617 2.97-2.46 5.21-2.46 5.21 1.35-3.68 0.002-8.62-0.246-9.86l-6.31-24.6c-4.1-15.4-19-23.6-32.1-23.6l-37.2 0.0194c-1.13 0.0682-5.51 0.257-7.08 1.27 0 0 0.943-1.28 3.27-2.71 2.74-1.67 6.26-1.81 6.26-1.81l33.3-0.0182c18.4 0 32 10.4 36.4 25l5.92 23.3s1.19 3.38 0.251 7.89zm-110 8.9c-2.28 1.28-6.38 1.94-13.6 1.94h-35.4l-11.8-43.9h3.34l10.9 40.6h35.4c5.26 0 8.86-0.354 11.3-1.05 0.0011 0.0637 0.0068 0.132 0.008 0.194 0.0068 0.78-0.0546 1.5-0.207 2.16zm21.6-9.03c-0.355-3.84-1.27-8.44-4.24-19.6-7.75-29.1-25.2-36.3-44.6-36.3h-52l-2.89 3.25h52.5c23.6 0 36.9 7.11 44.6 36.3 2.95 11.2 3.88 15.8 4.24 19.6 0.415 4.47 1.04 10.2-1.37 14.3 3.53-5.42 4.35-11.9 3.82-17.5" fill="#f58220"/></g></g></svg>
